<svg width="1000" height="1000" viewBox="0 0 1000 1000" fill="none" xmlns="http://www.w3.org/2000/svg">
<rect width="1000" height="1000" fill="#485FC7"/>
<path d="M536 692.5C511.667 692.5 489.5 688.5 469.5 680.5C449.5 672.5 432.333 660.833 418 645.5C403.667 630.167 392.5 611.333 384.5 589C376.833 566.333 373 540.5 373 511.5C373 482.5 377.333 456.833 386 434.5C395 411.833 407 392.833 422 377.5C437 362.167 454.5 350.5 474.5 342.5C494.5 334.5 515.833 330.5 538.5 330.5C552.833 330.5 565.667 331.5 577 333.5C588.667 335.5 598.667 337.833 607 340.5C615.667 343.167 622.667 345.833 628 348.5C633.333 351.167 637 353.167 639 354.5L625 394.5C622 392.5 617.667 390.333 612 388C606.333 385.667 599.833 383.333 592.5 381C585.5 378.667 577.667 376.833 569 375.5C560.667 373.833 552.167 373 543.5 373C525.167 373 508.667 376.167 494 382.5C479.333 388.833 466.833 398 456.5 410C446.167 422 438.167 436.667 432.5 454C427.167 471 424.5 490.167 424.5 511.5C424.5 532.167 426.833 551 431.5 568C436.5 585 443.833 599.667 453.5 612C463.167 624 475.167 633.333 489.5 640C504.167 646.667 521.167 650 540.5 650C562.833 650 581.333 647.667 596 643C610.667 638.333 621.667 634.167 629 630.5L641.5 670.5C639.167 672.167 635 674.333 629 677C623 679.333 615.5 681.667 606.5 684C597.5 686.333 587 688.333 575 690C563 691.667 550 692.5 536 692.5Z" fill="white"/>
</svg>
