<svg width="3697" height="1000" viewBox="0 0 3697 1000" fill="none" xmlns="http://www.w3.org/2000/svg">
<rect width="1000" height="1000" fill="#485FC7"/>
<path d="M537 692.5C512.667 692.5 490.5 688.5 470.5 680.5C450.5 672.5 433.333 660.833 419 645.5C404.667 630.167 393.5 611.333 385.5 589C377.833 566.333 374 540.5 374 511.5C374 482.5 378.333 456.833 387 434.5C396 411.833 408 392.833 423 377.5C438 362.167 455.5 350.5 475.5 342.5C495.5 334.5 516.833 330.5 539.5 330.5C553.833 330.5 566.667 331.5 578 333.5C589.667 335.5 599.667 337.833 608 340.5C616.667 343.167 623.667 345.833 629 348.5C634.333 351.167 638 353.167 640 354.5L626 394.5C623 392.5 618.667 390.333 613 388C607.333 385.667 600.833 383.333 593.5 381C586.5 378.667 578.667 376.833 570 375.5C561.667 373.833 553.167 373 544.5 373C526.167 373 509.667 376.167 495 382.5C480.333 388.833 467.833 398 457.5 410C447.167 422 439.167 436.667 433.5 454C428.167 471 425.5 490.167 425.5 511.5C425.5 532.167 427.833 551 432.5 568C437.5 585 444.833 599.667 454.5 612C464.167 624 476.167 633.333 490.5 640C505.167 646.667 522.167 650 541.5 650C563.833 650 582.333 647.667 597 643C611.667 638.333 622.667 634.167 630 630.5L642.5 670.5C640.167 672.167 636 674.333 630 677C624 679.333 616.5 681.667 607.5 684C598.5 686.333 588 688.333 576 690C564 691.667 551 692.5 537 692.5Z" fill="white"/>
<path d="M1334.5 555C1334.5 575.667 1331.5 594.333 1325.5 611C1319.5 627.667 1311 642 1300 654C1289.33 666 1276.5 675.333 1261.5 682C1246.5 688.333 1230.17 691.5 1212.5 691.5C1194.83 691.5 1178.5 688.333 1163.5 682C1148.5 675.333 1135.5 666 1124.5 654C1113.83 642 1105.5 627.667 1099.5 611C1093.5 594.333 1090.5 575.667 1090.5 555C1090.5 534.667 1093.5 516.167 1099.5 499.5C1105.5 482.5 1113.83 468 1124.5 456C1135.5 444 1148.5 434.833 1163.5 428.5C1178.5 421.833 1194.83 418.5 1212.5 418.5C1230.17 418.5 1246.5 421.833 1261.5 428.5C1276.5 434.833 1289.33 444 1300 456C1311 468 1319.5 482.5 1325.5 499.5C1331.5 516.167 1334.5 534.667 1334.5 555ZM1286 555C1286 525.667 1279.33 502.5 1266 485.5C1253 468.167 1235.17 459.5 1212.5 459.5C1189.83 459.5 1171.83 468.167 1158.5 485.5C1145.5 502.5 1139 525.667 1139 555C1139 584.333 1145.5 607.667 1158.5 625C1171.83 642 1189.83 650.5 1212.5 650.5C1235.17 650.5 1253 642 1266 625C1279.33 607.667 1286 584.333 1286 555ZM1722.64 677.5C1711.98 680.167 1697.81 683 1680.14 686C1662.81 689 1642.64 690.5 1619.64 690.5C1599.64 690.5 1582.81 687.667 1569.14 682C1555.48 676 1544.48 667.667 1536.14 657C1527.81 646.333 1521.81 633.833 1518.14 619.5C1514.48 604.833 1512.64 588.667 1512.64 571V425H1559.14V561C1559.14 592.667 1564.14 615.333 1574.14 629C1584.14 642.667 1600.98 649.5 1624.64 649.5C1629.64 649.5 1634.81 649.333 1640.14 649C1645.48 648.667 1650.48 648.333 1655.14 648C1659.81 647.333 1663.98 646.833 1667.64 646.5C1671.64 645.833 1674.48 645.167 1676.14 644.5V425H1722.64V677.5ZM2014.48 419.5C2018.48 419.5 2022.98 419.833 2027.98 420.5C2033.31 420.833 2038.48 421.5 2043.48 422.5C2048.48 423.167 2052.98 424 2056.98 425C2061.31 425.667 2064.48 426.333 2066.48 427L2058.48 467.5C2054.81 466.167 2048.64 464.667 2039.98 463C2031.64 461 2020.81 460 2007.48 460C1998.81 460 1990.14 461 1981.48 463C1973.14 464.667 1967.64 465.833 1964.98 466.5V685H1918.48V436C1929.48 432 1943.14 428.333 1959.48 425C1975.81 421.333 1994.14 419.5 2014.48 419.5ZM2287.57 651.5C2306.57 651.5 2320.57 649 2329.57 644C2338.9 639 2343.57 631 2343.57 620C2343.57 608.667 2339.07 599.667 2330.07 593C2321.07 586.333 2306.24 578.833 2285.57 570.5C2275.57 566.5 2265.9 562.5 2256.57 558.5C2247.57 554.167 2239.74 549.167 2233.07 543.5C2226.4 537.833 2221.07 531 2217.07 523C2213.07 515 2211.07 505.167 2211.07 493.5C2211.07 470.5 2219.57 452.333 2236.57 439C2253.57 425.333 2276.74 418.5 2306.07 418.5C2313.4 418.5 2320.74 419 2328.07 420C2335.4 420.667 2342.24 421.667 2348.57 423C2354.9 424 2360.4 425.167 2365.07 426.5C2370.07 427.833 2373.9 429 2376.57 430L2368.07 470C2363.07 467.333 2355.24 464.667 2344.57 462C2333.9 459 2321.07 457.5 2306.07 457.5C2293.07 457.5 2281.74 460.167 2272.07 465.5C2262.4 470.5 2257.57 478.5 2257.57 489.5C2257.57 495.167 2258.57 500.167 2260.57 504.5C2262.9 508.833 2266.24 512.833 2270.57 516.5C2275.24 519.833 2280.9 523 2287.57 526C2294.24 529 2302.24 532.167 2311.57 535.5C2323.9 540.167 2334.9 544.833 2344.57 549.5C2354.24 553.833 2362.4 559 2369.07 565C2376.07 571 2381.4 578.333 2385.07 587C2388.74 595.333 2390.57 605.667 2390.57 618C2390.57 642 2381.57 660.167 2363.57 672.5C2345.9 684.833 2320.57 691 2287.57 691C2264.57 691 2246.57 689 2233.57 685C2220.57 681.333 2211.74 678.5 2207.07 676.5L2215.57 636.5C2220.9 638.5 2229.4 641.5 2241.07 645.5C2252.74 649.5 2268.24 651.5 2287.57 651.5ZM2551.44 555.5C2551.44 532.5 2554.77 512.5 2561.44 495.5C2568.1 478.167 2576.94 463.833 2587.94 452.5C2598.94 441.167 2611.6 432.667 2625.94 427C2640.27 421.333 2654.94 418.5 2669.94 418.5C2704.94 418.5 2731.77 429.5 2750.44 451.5C2769.1 473.167 2778.44 506.333 2778.44 551C2778.44 553 2778.44 555.667 2778.44 559C2778.44 562 2778.27 564.833 2777.94 567.5H2599.94C2601.94 594.5 2609.77 615 2623.44 629C2637.1 643 2658.44 650 2687.44 650C2703.77 650 2717.44 648.667 2728.44 646C2739.77 643 2748.27 640.167 2753.94 637.5L2760.44 676.5C2754.77 679.5 2744.77 682.667 2730.44 686C2716.44 689.333 2700.44 691 2682.44 691C2659.77 691 2640.1 687.667 2623.44 681C2607.1 674 2593.6 664.5 2582.94 652.5C2572.27 640.5 2564.27 626.333 2558.94 610C2553.94 593.333 2551.44 575.167 2551.44 555.5ZM2729.94 530C2730.27 509 2724.94 491.833 2713.94 478.5C2703.27 464.833 2688.44 458 2669.44 458C2658.77 458 2649.27 460.167 2640.94 464.5C2632.94 468.5 2626.1 473.833 2620.44 480.5C2614.77 487.167 2610.27 494.833 2606.94 503.5C2603.94 512.167 2601.94 521 2600.94 530H2729.94ZM3015.96 658C3015.96 667 3012.96 674.833 3006.96 681.5C3000.96 688.167 2992.79 691.5 2982.46 691.5C2972.12 691.5 2963.96 688.167 2957.96 681.5C2951.96 674.833 2948.96 667 2948.96 658C2948.96 649 2951.96 641.167 2957.96 634.5C2963.96 627.833 2972.12 624.5 2982.46 624.5C2992.79 624.5 3000.96 627.833 3006.96 634.5C3012.96 641.167 3015.96 649 3015.96 658ZM3246.23 685H3199.73V425H3246.23V685ZM3222.73 378C3214.39 378 3207.23 375.333 3201.23 370C3195.56 364.333 3192.73 356.833 3192.73 347.5C3192.73 338.167 3195.56 330.833 3201.23 325.5C3207.23 319.833 3214.39 317 3222.73 317C3231.06 317 3238.06 319.833 3243.73 325.5C3249.73 330.833 3252.73 338.167 3252.73 347.5C3252.73 356.833 3249.73 364.333 3243.73 370C3238.06 375.333 3231.06 378 3222.73 378ZM3671.41 555C3671.41 575.667 3668.41 594.333 3662.41 611C3656.41 627.667 3647.91 642 3636.91 654C3626.25 666 3613.41 675.333 3598.41 682C3583.41 688.333 3567.08 691.5 3549.41 691.5C3531.75 691.5 3515.41 688.333 3500.41 682C3485.41 675.333 3472.41 666 3461.41 654C3450.75 642 3442.41 627.667 3436.41 611C3430.41 594.333 3427.41 575.667 3427.41 555C3427.41 534.667 3430.41 516.167 3436.41 499.5C3442.41 482.5 3450.75 468 3461.41 456C3472.41 444 3485.41 434.833 3500.41 428.5C3515.41 421.833 3531.75 418.5 3549.41 418.5C3567.08 418.5 3583.41 421.833 3598.41 428.5C3613.41 434.833 3626.25 444 3636.91 456C3647.91 468 3656.41 482.5 3662.41 499.5C3668.41 516.167 3671.41 534.667 3671.41 555ZM3622.91 555C3622.91 525.667 3616.25 502.5 3602.91 485.5C3589.91 468.167 3572.08 459.5 3549.41 459.5C3526.75 459.5 3508.75 468.167 3495.41 485.5C3482.41 502.5 3475.91 525.667 3475.91 555C3475.91 584.333 3482.41 607.667 3495.41 625C3508.75 642 3526.75 650.5 3549.41 650.5C3572.08 650.5 3589.91 642 3602.91 625C3616.25 607.667 3622.91 584.333 3622.91 555Z" fill="#485FC7"/>
</svg>
